<?xml version="1.0" encoding="iso-8859-1"?>
<!-- Generator: Adobe Illustrator 18.0.0, SVG Export Plug-In . SVG Version: 6.00 Build 0)  -->
<!DOCTYPE svg PUBLIC "-//W3C//DTD SVG 1.1//EN" "http://www.w3.org/Graphics/SVG/1.1/DTD/svg11.dtd">
<svg version="1.1" id="Capa_1" xmlns="http://www.w3.org/2000/svg" xmlns:xlink="http://www.w3.org/1999/xlink" x="0px" y="0px"
	 viewBox="0 0 441.462 441.462" style="enable-background:new 0 0 441.462 441.462;" xml:space="preserve">
<path d="M376.812,64.651C335.121,22.96,279.69,0,220.731,0S106.341,22.96,64.65,64.651C22.96,106.342,0,161.772,0,220.731
	s22.96,114.39,64.65,156.081c41.691,41.69,97.121,64.65,156.081,64.65s114.39-22.96,156.081-64.65
	c41.691-41.691,64.651-97.121,64.651-156.081S418.502,106.342,376.812,64.651z M30.261,230.731h61.776
	c1.057,36.015,7.824,70.375,19.576,100.269H65.188C44.847,302.392,32.194,267.956,30.261,230.731z M230.731,90.46V35.263
	c24.419,3.889,47.37,21.956,65.48,51.864c0.666,1.099,1.322,2.21,1.969,3.333H230.731z M308.218,110.46
	c12.713,29.18,20.062,63.726,21.197,100.271h-98.683V110.46H308.218z M210.731,35.263V90.46h-67.448
	c0.647-1.122,1.303-2.233,1.969-3.333C163.361,57.219,186.312,39.152,210.731,35.263z M210.731,110.46v100.271h-98.683
	c1.135-36.545,8.484-71.091,21.197-100.271H210.731z M92.037,210.731H30.261c1.932-37.226,14.586-71.662,34.928-100.271h46.425
	C99.862,140.355,93.095,174.715,92.037,210.731z M112.048,230.731h98.683V331h-77.487
	C120.532,301.82,113.183,267.275,112.048,230.731z M210.731,351v55.199c-24.419-3.889-47.37-21.956-65.479-51.864
	c-0.666-1.1-1.323-2.212-1.97-3.334H210.731z M230.731,406.199V351h67.45c-0.647,1.123-1.304,2.234-1.97,3.334
	C278.101,384.243,255.15,402.31,230.731,406.199z M230.731,331V230.731h98.683c-1.135,36.544-8.484,71.089-21.196,100.269H230.731z
	 M349.425,230.731h61.776c-1.932,37.225-14.586,71.661-34.926,100.269h-46.425C341.601,301.106,348.368,266.746,349.425,230.731z
	 M349.425,210.731c-1.057-36.016-7.825-70.376-19.577-100.271h46.425c20.341,28.609,32.996,63.045,34.928,100.271H349.425z
	 M359.905,90.46h-39.008c-2.389-4.715-4.912-9.289-7.578-13.692c-8.657-14.298-18.402-26.296-28.952-35.838
	C313.414,51.241,339.242,68.4,359.905,90.46z M157.096,40.93c-10.551,9.542-20.295,21.541-28.953,35.838
	c-2.666,4.403-5.189,8.977-7.578,13.692H81.558C102.22,68.4,128.048,51.241,157.096,40.93z M81.556,351h39.009
	c2.39,4.716,4.913,9.29,7.579,13.694c8.657,14.298,18.402,26.296,28.953,35.838C128.048,390.221,102.218,373.062,81.556,351z
	 M284.367,400.532c10.55-9.542,20.295-21.541,28.952-35.838c2.667-4.404,5.189-8.978,7.579-13.694h39.008
	C339.244,373.062,313.415,390.22,284.367,400.532z"/>
<g>
</g>
<g>
</g>
<g>
</g>
<g>
</g>
<g>
</g>
<g>
</g>
<g>
</g>
<g>
</g>
<g>
</g>
<g>
</g>
<g>
</g>
<g>
</g>
<g>
</g>
<g>
</g>
<g>
</g>
</svg>
