<?xml version="1.0" encoding="iso-8859-1"?>
<!-- Generator: Adobe Illustrator 18.0.0, SVG Export Plug-In . SVG Version: 6.00 Build 0)  -->
<!DOCTYPE svg PUBLIC "-//W3C//DTD SVG 1.1//EN" "http://www.w3.org/Graphics/SVG/1.1/DTD/svg11.dtd">
<svg version="1.1" id="Capa_1" xmlns="http://www.w3.org/2000/svg" xmlns:xlink="http://www.w3.org/1999/xlink" x="0px" y="0px"
	 viewBox="0 0 414.623 414.623" style="enable-background:new 0 0 414.623 414.623;" xml:space="preserve">
<g>
	<path style="fill:#211915;" d="M409.891,99.78c-18.082-11.206-38.884-17.13-60.156-17.13h-56.648c-5.522,0-10,4.478-10,10v157.528
		h-5.754v-16.032c0-5.522-4.478-10-10-10h-29.607v-8.188c0-0.473-0.044-0.935-0.108-1.391h28.958c5.522,0,10-4.478,10-10V103.28
		c0-5.522-4.478-10-10-10H10.757c-5.523,0-10,4.478-10,10v101.288c0,5.522,4.477,10,10,10h38.958
		c-0.064,0.456-0.108,0.917-0.108,1.391v8.188H10c-5.523,0-10,4.478-10,10v56.188c0,5.522,4.477,10,10,10h31.419
		c4.208,18.104,20.461,31.638,39.827,31.638s35.618-13.534,39.827-31.638h4.14c4.208,18.104,20.461,31.638,39.827,31.638
		s35.619-13.534,39.827-31.638h62.465c5.522,0,10-4.478,10-10v-20.156h5.754v20.156c0,5.522,4.478,10,10,10h15.594
		c4.208,18.104,20.462,31.638,39.827,31.638c19.656,0,36.113-13.94,40.016-32.451c14.917-3.341,26.101-16.679,26.101-32.589V108.28
		C414.623,104.819,412.833,101.604,409.891,99.78z M348.507,311.973c-11.522,0-20.897-9.375-20.897-20.897
		s9.375-20.896,20.897-20.896s20.897,9.374,20.897,20.896S360.029,311.973,348.507,311.973z M348.507,250.179
		c-18.834,0-34.726,12.801-39.456,30.156h-5.965v-36.188h91.537v22.786c0,5.119-2.887,9.573-7.117,11.829
		C382.269,262.21,366.768,250.179,348.507,250.179z M394.623,164.038h-41.769v-24.457h41.769V164.038z M394.623,114.034v5.547
		h-51.769c-5.522,0-10,4.478-10,10v44.457c0,5.522,4.478,10,10,10h51.769v40.108h-91.537V102.65h46.648
		C365.453,102.65,380.861,106.571,394.623,114.034z M185.938,291.075c0,11.522-9.375,20.897-20.897,20.897
		c-11.522,0-20.897-9.375-20.897-20.897s9.375-20.896,20.897-20.896C176.563,270.179,185.938,279.553,185.938,291.075z
		 M102.143,291.075c0,11.522-9.375,20.897-20.897,20.897s-20.897-9.375-20.897-20.897s9.375-20.896,20.897-20.896
		S102.143,279.553,102.143,291.075z M161.686,224.146h-36.039v-8.188c0-0.473-0.044-0.935-0.108-1.391h36.255
		c-0.064,0.456-0.108,0.917-0.108,1.391V224.146z M20,244.146h237.332v36.188h-52.836c-4.73-17.355-20.622-30.156-39.456-30.156
		s-34.726,12.801-39.456,30.156h-4.882c-4.73-17.355-20.622-30.156-39.456-30.156S46.52,262.979,41.79,280.335H20V244.146z
		 M217.725,215.959v8.188h-36.039v-8.188c0-0.473-0.044-0.935-0.108-1.391h36.255C217.769,215.024,217.725,215.486,217.725,215.959z
		 M20.757,113.28h235.818v81.288H20.757V113.28z M69.5,214.568h36.255c-0.064,0.456-0.108,0.917-0.108,1.391v8.188H69.607v-8.188
		C69.607,215.486,69.563,215.024,69.5,214.568z"/>
</g>
<g>
</g>
<g>
</g>
<g>
</g>
<g>
</g>
<g>
</g>
<g>
</g>
<g>
</g>
<g>
</g>
<g>
</g>
<g>
</g>
<g>
</g>
<g>
</g>
<g>
</g>
<g>
</g>
<g>
</g>
</svg>
